<?xml version="1.0" encoding="UTF-8"?>
<svg xmlns="http://www.w3.org/2000/svg" width="64" height="64" viewBox="0 0 64 64">
  <rect x="0" y="0" width="64" height="64" fill="transparent"/>
  <defs>
    <linearGradient id="skinGrad" x1="0%" y1="0%" x2="100%" y2="100%">
      <stop offset="0%" style="stop-color:#f5deb3"/>
      <stop offset="100%" style="stop-color:#deb887"/>
    </linearGradient>
    <linearGradient id="robeGrad" x1="0%" y1="0%" x2="0%" y2="100%">
      <stop offset="0%" style="stop-color:#8b4513"/>
      <stop offset="100%" style="stop-color:#5c3317"/>
    </linearGradient>
    <linearGradient id="hairGrad" x1="0%" y1="0%" x2="0%" y2="100%">
      <stop offset="0%" style="stop-color:#4a3728"/>
      <stop offset="100%" style="stop-color:#2d1f15"/>
    </linearGradient>
  </defs>
  <ellipse cx="32" cy="20" rx="10" ry="12" fill="url(#skinGrad)"/>
  <ellipse cx="32" cy="44" rx="14" ry="16" fill="url(#robeGrad)"/>
  <path d="M22 20 Q32 8 42 20" fill="url(#hairGrad)"/>
  <ellipse cx="27" cy="18" rx="2" ry="2" fill="#1a1a1a"/>
  <ellipse cx="37" cy="18" rx="2" ry="2" fill="#1a1a1a"/>
  <path d="M29 24 Q32 26 35 24" stroke="#1a1a1a" stroke-width="1" fill="none"/>
  <rect x="18" y="32" width="6" height="14" fill="url(#robeGrad)"/>
  <rect x="40" y="32" width="6" height="14" fill="url(#robeGrad)"/>
  <rect x="26" y="58" width="5" height="4" fill="#1a1a1a"/>
  <rect x="33" y="58" width="5" height="4" fill="#1a1a1a"/>
  <circle cx="32" cy="12" r="3" fill="#ffd700" opacity="0.8"/>
</svg>
